<svg xmlns="http://www.w3.org/2000/svg" width="32" height="32" viewBox="0 0 40 40" fill="none">
  <g clip-path="url(#a)">
    <path d="m39.937 38.457-4.765-14.06-3.774 9.775L32.89 40h5.937a1.173 1.173 0 0 0 1.11-1.543" fill="#172C4D"></path>
    <path d="M.065 38.457A1.17 1.17 0 0 0 1.175 40h5.937l1.8-3.714L4.83 24.399z" fill="#214070"></path>
    <path d="m34.343 23.633-.86-.215-12.674 9.796a1.17 1.17 0 0 1-1.616.004L6.41 23.444l-.754.189a1.17 1.17 0 0 0-.827.765l2.283 15.603h25.776l2.283-15.603a1.17 1.17 0 0 0-.827-.765" fill="#455DA0"></path>
    <path d="M35.17 24.398a1.17 1.17 0 0 0-.826-.765l-.86-.215-12.674 9.796a1.17 1.17 0 0 1-.81.325v6.462h12.888z" fill="#214070"></path>
    <path d="M26.978 21.791 20 25.597l-6.978-3.806-6.612 1.653L19.194 35.56a1.17 1.17 0 0 0 1.616-.004l12.674-12.14z" fill="#EDF5FF"></path>
    <path d="m33.484 23.417-6.506-1.626L20 25.597v10.285c.292 0 .584-.109.81-.325z" fill="#D5E8FE"></path>
    <path d="M24.972 21.29H15.03l-2.008.5 6.15 6.15a1.17 1.17 0 0 0 1.657 0l6.149-6.15z" fill="#FFCCB3"></path>
    <path d="m26.978 21.79-2.008-.5H20v6.994c.3 0 .6-.115.828-.344z" fill="#FA9"></path>
    <path d="M19.999 10.516h-8.202v4.801c0 4.522 3.68 8.28 8.202 8.28 4.521 0 8.201-3.758 8.201-8.28v-4.801z" fill="#FFE6CC"></path>
    <path d="M28.202 15.317v-4.801H20v13.08c4.522 0 8.202-3.757 8.202-8.279" fill="#FFCCB3"></path>
    <path d="M31.719 16.49a1.17 1.17 0 0 1-1.172-1.173V3.991a1.17 1.17 0 1 1 2.343 0v11.326c0 .648-.524 1.172-1.172 1.172" fill="#FABE2C"></path>
    <path d="M19.999 4.772h-8.202v5.744l8.01 1.336c.064.01.128.023.192.023.063 0 .126-.013.192-.023l8.01-1.336V4.772z" fill="#214070"></path>
    <path d="M28.202 10.516V4.772H20v7.103c.064 0 .127-.013.192-.023z" fill="#172C4D"></path>
    <path d="M34.253 2.445 20.193.023C20.13.013 20.066 0 20.001 0s-.13.013-.192.023L5.749 2.445a1.171 1.171 0 0 0 0 2.311L19.809 7.1c.065.011.128.024.192.024s.128-.013.192-.024l14.06-2.343a1.171 1.171 0 0 0 0-2.311" fill="#455DA0"></path>
    <path d="M34.252 4.756a1.171 1.171 0 0 0 0-2.311L20.192.023C20.13.013 20.065 0 20 0v7.123c.064 0 .127-.013.192-.024z" fill="#214070"></path>
  </g>
  <defs>
    <clipPath id="a">
      <rect width="40" height="40" rx="20" fill="#fff"></rect>
    </clipPath>
  </defs>
</svg> 