<svg xmlns="http://www.w3.org/2000/svg" width="32" height="32" viewBox="0 0 32 32" fill="none">
  <g clip-path="url(#clip0_7710_91467)">
    <path d="M21 20.625H11C7.03681 20.625 3.8125 23.8493 3.8125 27.8125V31.0625C3.8125 31.5802 4.23225 32 4.75 32H27.25C27.7677 32 28.1875 31.5802 28.1875 31.0625V27.8125C28.1875 23.8493 24.9632 20.625 21 20.625Z" fill="#9F9CE2"></path>
    <path d="M21 20.625C18.2386 20.625 16 22.8636 16 25.625V26.3125C16 29.4536 18.5464 32 21.6875 32H27.25C27.7677 32 28.1875 31.5802 28.1875 31.0625V27.8125C28.1875 23.8493 24.9632 20.625 21 20.625Z" fill="#7974D7"></path>
    <path d="M18.5 18.8516H13.5C13.3274 18.8516 13.1875 18.9915 13.1875 19.1641V22.1876C13.1875 23.7409 14.4467 25.0001 16 25.0001C17.5533 25.0001 18.8125 23.7409 18.8125 22.1876V19.1641C18.8125 18.9914 18.6726 18.8516 18.5 18.8516Z" fill="#FFCDBE"></path>
    <path d="M16 21.9258C16 23.6237 17.7162 24.9882 18.4981 23.4811C18.699 23.0938 18.8125 22.654 18.8125 22.1876V19.1641C18.8125 18.9915 18.6726 18.8516 18.5 18.8516C17.1193 18.8516 16 19.9709 16 21.3516V21.9258Z" fill="#FFBCA7"></path>
    <path d="M21.3125 7.5H10.6875C10.3423 7.5 10.0625 7.77981 10.0625 8.125V14.0625C10.0625 17.3417 12.7208 20 16 20C19.2792 20 21.9375 17.3417 21.9375 14.0625V8.125C21.9375 7.77981 21.6577 7.5 21.3125 7.5Z" fill="#FFDECF"></path>
    <path d="M21.9375 14.0625V8.125C21.9375 7.77981 21.6577 7.5 21.3125 7.5C18.3785 7.5 16 9.87849 16 12.8125V13.75C16 17.2018 19.4463 20.001 21.1589 17.004C21.6543 16.1368 21.9375 15.1327 21.9375 14.0625Z" fill="#FFCDBE"></path>
    <path d="M28.6953 20.3125C29.2131 20.3125 29.6328 19.8928 29.6328 19.375C29.6328 18.8572 29.2131 18.4375 28.6953 18.4375C28.1775 18.4375 27.7578 18.8572 27.7578 19.375C27.7578 19.8928 28.1775 20.3125 28.6953 20.3125Z" fill="#453D83"></path>
    <path d="M31.9924 11.2519C31.9033 9.53363 30.4849 8.16038 28.7633 8.12569C28.7408 8.12525 28.7184 8.125 28.696 8.125C27.0533 8.125 25.6539 9.33581 25.4263 10.9671C25.4052 11.1182 25.3945 11.2728 25.3945 11.4263C25.3945 11.944 25.8143 12.3638 26.332 12.3638C26.8498 12.3638 27.2695 11.944 27.2695 11.4263C27.2695 11.359 27.2742 11.2916 27.2833 11.2261C27.3829 10.5127 28.004 9.98419 28.7256 10.0003C29.4691 10.0153 30.0815 10.6077 30.12 11.3491C30.1406 11.7452 30.0021 12.1213 29.7301 12.4078C29.4578 12.6946 29.0905 12.8525 28.6958 12.8525C28.178 12.8525 27.7583 13.2723 27.7583 13.79V15.9375C27.7583 16.4552 28.178 16.875 28.6958 16.875C29.2135 16.875 29.6333 16.4552 29.6333 15.9375C29.6333 15.1383 30.1988 14.4704 30.8126 13.9586C30.9096 13.8777 31.0022 13.791 31.0898 13.6987C31.7193 13.0356 32.04 12.1666 31.9924 11.2519Z" fill="#453D83"></path>
    <path d="M0.9375 18.4375C0.41975 18.4375 0 18.8572 0 19.375C0 19.8928 0.41975 20.3125 0.9375 20.3125C1.45525 20.3125 1.875 19.8928 1.875 19.375C1.875 18.8572 1.45525 18.4375 0.9375 18.4375Z" fill="#5F55AF"></path>
    <path d="M0.9375 8.125C0.41975 8.125 0 8.54475 0 9.0625V15.9375C0 16.4552 0.41975 16.875 0.9375 16.875C1.45525 16.875 1.875 16.4552 1.875 15.9375V9.0625C1.875 8.54475 1.45525 8.125 0.9375 8.125Z" fill="#5F55AF"></path>
    <path d="M4.6875 18.4375C4.16975 18.4375 3.75 18.8572 3.75 19.375C3.75 19.8928 4.16975 20.3125 4.6875 20.3125C5.20525 20.3125 5.625 19.8928 5.625 19.375C5.625 18.8572 5.20525 18.4375 4.6875 18.4375Z" fill="#5F55AF"></path>
    <path d="M4.6875 8.125C4.16975 8.125 3.75 8.54475 3.75 9.0625V15.9375C3.75 16.4552 4.16975 16.875 4.6875 16.875C5.20525 16.875 5.625 16.4552 5.625 15.9375V9.0625C5.625 8.54475 5.20525 8.125 4.6875 8.125Z" fill="#5F55AF"></path>
    <path d="M20.7813 2.85775C20.0364 1.92144 18.9842 1.25762 17.8184 0.988563C14.9757 0.332625 12.0551 0 9.13787 0H7.24656C6.72749 0 6.30475 0.421875 6.30862 0.940938C6.32311 2.88404 6.93302 4.7443 8.06292 6.24024C9.14752 7.67621 11.0216 8.125 12.8211 8.125H19.9764C21.0588 8.125 21.9363 7.24751 21.9363 6.16506C21.9363 4.96863 21.5261 3.79406 20.7813 2.85775Z" fill="#FFF79F"></path>
    <path d="M21.9375 6.16656C21.9375 6.16656 21.9374 6.16655 21.9374 6.16653C21.9374 4.9701 21.5272 3.79555 20.7824 2.85925C20.0376 1.92294 18.9853 1.25912 17.8195 0.990063C16.8766 0.772486 16 1.50701 16 2.47468V5.15775C16 6.79734 17.3292 8.1265 18.9688 8.1265H20.9575C21.4988 8.1265 21.9375 7.68775 21.9375 7.14653V6.16659C21.9375 6.16658 21.9375 6.16656 21.9375 6.16656Z" fill="#FFDE55"></path>
  </g>
  <defs>
    <clipPath id="clip0_7710_91467">
      <rect width="32" height="32" rx="16" fill="white"></rect>
    </clipPath>
  </defs>
</svg> 