<svg xmlns="http://www.w3.org/2000/svg" width="32" height="32" viewBox="0 0 32 32" fill="none">
  <g clip-path="url(#working)">
    <path d="M24.375 31.063v-4.5a5.9 5.9 0 0 0-1.197-3.576 5.9 5.9 0 0 0-3.11-2.133l-5.83-1.666h-4.101l-5.83 1.665a5.9 5.9 0 0 0-3.11 2.134A5.9 5.9 0 0 0 0 26.563v4.5c0 .517.42.937.938.937H11.25l1-.625.875.625h5.438z" fill="#E2DFF4"></path>
    <path d="M24.375 31.063v-4.5a5.9 5.9 0 0 0-1.197-3.576 5.9 5.9 0 0 0-3.11-2.133l-5.83-1.666h-2.05v12.226l.062-.039.875.625h5.438z" fill="#D5D3EA"></path>
    <path d="M11.25 18.25h1.875V32H11.25z" fill="#D5D3EA"></path>
    <path d="M12.188 18.25h.937V32h-.937z" fill="#AAA5D3"></path>
    <path d="M9.688 16.596v2.445l2.5 2.812 2.5-2.812v-2.445z" fill="#FFCBBC"></path>
    <path d="M12.188 16.596v5.257l2.5-2.812v-2.445z" fill="#F2D1A5"></path>
    <path d="M13.438 0a4.69 4.69 0 0 1 4.687 4.688v3.437c0 .518-.42.938-.937.938h-10a.94.94 0 0 1-.938-.938l-1.188-.713A3.99 3.99 0 0 1 7.116 0z" fill="#453D83"></path>
    <path d="M13.438 0h-1.25v9.063h5c.517 0 .937-.42.937-.938V4.688A4.69 4.69 0 0 0 13.438 0" fill="#2D2755"></path>
    <path d="M17.813 8.125A5.31 5.31 0 0 1 13.563 6a.938.938 0 0 0-1.5 0 5.31 5.31 0 0 1-4.25 2.125H6.25v4.063a5.937 5.937 0 1 0 11.875 0V8.125z" fill="#FFDDCE"></path>
    <path d="M17.813 8.125A5.31 5.31 0 0 1 13.563 6a.937.937 0 0 0-1.376-.135v12.26a5.94 5.94 0 0 0 5.938-5.937V8.125z" fill="#FFCBBC"></path>
    <path d="m9.687 18.104-1.91 1.433a.94.94 0 0 0-.3 1.119l1.1 2.565c.244.57.964.75 1.447.363l2.163-1.73z" fill="#F9F9F9"></path>
    <path d="m14.688 18.104 1.91 1.433c.346.259.47.721.3 1.119l-1.1 2.565a.938.938 0 0 1-1.448.363l-2.162-1.73z" fill="#E2DFF4"></path>
    <path d="M28.563 32h-10a2.816 2.816 0 0 1-2.813-2.812V22.76h15.625v6.427A2.816 2.816 0 0 1 28.563 32" fill="#453D83"></path>
    <path d="M23.563 22.76V32h5a2.816 2.816 0 0 0 2.812-2.812V22.76z" fill="#2D2755"></path>
    <path d="M27 20.073h-1.875v-2.76a.313.313 0 0 0-.312-.313h-2.5a.313.313 0 0 0-.313.313v2.76h-1.875v-2.76a2.19 2.19 0 0 1 2.188-2.188h2.5A2.19 2.19 0 0 1 27 17.313z" fill="#453D83"></path>
    <path d="M24.813 15.125h-1.25V17h1.25c.172 0 .312.14.312.313v2.76H27v-2.76a2.19 2.19 0 0 0-2.187-2.188" fill="#2D2755"></path>
    <path d="M29.5 24.813H17.625a2.5 2.5 0 0 1-2.5-2.5v-.938a2.5 2.5 0 0 1 2.5-2.5H29.5a2.5 2.5 0 0 1 2.5 2.5v.938a2.5 2.5 0 0 1-2.5 2.5" fill="#5F55AF"></path>
    <path d="M23.563 24.813H29.5a2.5 2.5 0 0 0 2.5-2.5v-.938a2.5 2.5 0 0 0-2.5-2.5h-5.937z" fill="#453D83"></path>
    <path d="M20.438 27a.937.937 0 0 1-.938-.937v-2.5a.937.937 0 1 1 1.875 0v2.5c0 .517-.42.937-.937.937" fill="#FFF16B"></path>
    <path d="M26.688 27a.937.937 0 0 1-.938-.937v-2.5a.937.937 0 1 1 1.875 0v2.5c0 .517-.42.937-.937.937" fill="#FFC178"></path>
  </g>
  <defs>
    <clipPath id="working">
      <rect width="32" height="32" rx="16" fill="#fff"></rect>
    </clipPath>
  </defs>
</svg> 